# xmcd
#
# Track frame offsets:
#	150
#	14269
#	30608
#	50984
#	63582
#	80950
#	98077
#	119704
#	138522
#	150020
#	166819
#
# Disc length: 2442 seconds
#
# Revision: 0
# Processed by: cddbd v1.5.2PL0 Copyright (c) Steve Scherf et al.
# Submitted via: dBpowerAMP V4.0
#
DISCID=9109880b
DTITLE=Billy Currington - Doin' Somethin' Right
DYEAR=1900
DGENRE=country
TTITLE0=I Wanna Be A Hillbilly
TTITLE1=Good Directions
TTITLE2=Must Be Doin' Somethin' Right
TTITLE3=Why, Why, Why
TTITLE4=That Changes Everything
TTITLE5=Little Bit Lonely
TTITLE6=She's Got A Way With Me
TTITLE7=Lucille
TTITLE8=Whole Lot More
TTITLE9=Here I Am
TTITLE10=She Knows What To Do With A Saturday Night
EXTD=
EXTT0=
EXTT1=
EXTT2=
EXTT3=
EXTT4=
EXTT5=
EXTT6=
EXTT7=
EXTT8=
EXTT9=
EXTT10=
PLAYORDER=
